<svg width="350" height="272" viewBox="0 0 350 272" fill="none" xmlns="http://www.w3.org/2000/svg">
    <g clip-path="url(#clip0_400_191)">
        <path d="M199.292 132.909C207.167 132.909 213.552 126.525 213.552 118.649C213.552 110.774 207.167 104.389 199.292 104.389C191.416 104.389 185.031 110.774 185.031 118.649C185.031 126.525 191.416 132.909 199.292 132.909Z" fill="#E6E6E6"/>
        <path d="M234.241 136.974L219.338 122.072C220.481 120.295 221.255 118.308 221.615 116.226C221.975 114.145 221.913 112.012 221.434 109.955C220.955 107.898 220.068 105.958 218.825 104.25C217.582 102.542 216.009 101.101 214.199 100.012C210.791 97.9759 206.743 97.2942 202.856 98.1016C198.969 98.909 195.527 101.147 193.212 104.371C191.082 107.359 190.058 110.995 190.318 114.654C190.578 118.314 192.105 121.769 194.636 124.425C197.167 127.081 200.545 128.772 204.188 129.208C207.831 129.644 211.512 128.797 214.598 126.813L229.5 141.715C230.129 142.343 230.981 142.696 231.87 142.695C232.759 142.695 233.611 142.342 234.239 141.714C234.868 141.085 235.221 140.233 235.221 139.344C235.221 138.455 234.869 137.603 234.241 136.974ZM214.042 121.516C212.195 123.362 209.766 124.512 207.167 124.768C204.568 125.024 201.961 124.371 199.79 122.92C197.618 121.469 196.017 119.31 195.259 116.811C194.501 114.312 194.633 111.628 195.632 109.215C196.632 106.803 198.437 104.811 200.74 103.58C203.043 102.349 205.701 101.955 208.262 102.465C210.823 102.974 213.129 104.356 214.785 106.374C216.442 108.393 217.347 110.923 217.347 113.535C217.349 115.017 217.058 116.486 216.491 117.855C215.924 119.225 215.091 120.469 214.042 121.516Z" fill="#3F3D56"/>
        <path d="M342.264 158.956C380.375 201.102 269.899 261.841 180.632 261.841C91.3648 261.841 29.6058 214.779 18.9994 158.956C-6.71749 23.604 238.114 -62.425 180.632 56.0712C96.8454 228.793 312.251 125.765 342.264 158.956Z" fill="#E6E6E6"/>
        <path d="M325.165 168.931C363.275 211.077 252.8 271.815 163.533 271.815C74.2654 271.815 12.5065 224.754 1.90006 168.931C-23.8169 33.5786 221.014 -52.4504 163.533 66.0458C79.746 238.768 295.152 135.74 325.165 168.931Z" fill="#3F3D56"/>
        <path d="M53.2911 70.1171C26.5492 68.9396 5.81473 63.1712 6.08713 56.9846C6.25044 53.2755 13.8187 50.2929 26.8511 48.8019C26.8978 48.7963 26.9451 48.7999 26.9903 48.8126C27.0355 48.8253 27.0778 48.8468 27.1147 48.8759C27.1516 48.905 27.1823 48.9411 27.2052 48.9822C27.228 49.0232 27.2426 49.0684 27.2479 49.1151C27.2532 49.1618 27.2493 49.209 27.2363 49.2542C27.2233 49.2993 27.2015 49.3414 27.1721 49.3781C27.1428 49.4148 27.1064 49.4453 27.0652 49.4679C27.0241 49.4905 26.9788 49.5047 26.9321 49.5097C14.6555 50.9144 6.94093 53.7906 6.7989 57.0159C6.55257 62.6104 27.8577 68.2841 53.3224 69.4053C78.7872 70.5265 100.509 66.7474 100.755 61.1528C100.897 57.914 93.4175 54.3609 81.2338 51.8805C81.1878 51.8713 81.1441 51.8531 81.1052 51.8269C81.0663 51.8008 81.0329 51.7672 81.007 51.7282C80.9811 51.6891 80.9631 51.6454 80.9542 51.5993C80.9452 51.5533 80.9454 51.506 80.9548 51.4601C80.9641 51.4142 80.9824 51.3705 81.0087 51.3317C81.0349 51.2929 81.0686 51.2596 81.1077 51.2338C81.1468 51.208 81.1907 51.1901 81.2367 51.1813C81.2827 51.1725 81.3301 51.1728 81.376 51.1823C94.3078 53.8151 101.631 57.4606 101.467 61.1841C101.194 67.3708 80.033 71.2945 53.2911 70.1171Z" fill="#10B981"/>
        <path d="M29.5403 71.1528C31.7774 75.4026 35.0913 78.9904 39.1505 81.5572C43.2097 84.124 47.8718 85.5798 52.6703 85.779C57.4688 85.9782 62.2355 84.9137 66.4934 82.6921C70.7513 80.4705 74.3512 77.1697 76.9328 73.1199C61.1112 73.3331 45.2898 72.6765 29.5403 71.1528Z" fill="#10B981"/>
        <path d="M79.891 65.6266C81.2374 61.5882 81.6253 57.2919 81.0242 53.0776C80.423 48.8634 78.8492 44.8469 76.4273 41.3461C74.0055 37.8452 70.802 34.9561 67.0705 32.9074C63.3391 30.8587 59.1819 29.7067 54.9282 29.5424C50.6745 29.3781 46.4409 30.2062 42.5625 31.961C38.6841 33.7159 35.2674 36.3493 32.5828 39.6529C29.8982 42.9566 28.0193 46.8397 27.0949 50.9951C26.1706 55.1504 26.226 59.4638 27.2569 63.594C44.6399 66.5449 62.3323 67.2281 79.891 65.6266Z" fill="#10B981"/>
        <path d="M60.1451 47.2375C61.9158 47.2375 63.3513 45.8021 63.3513 44.0313C63.3513 42.2606 61.9158 40.8252 60.1451 40.8252C58.3744 40.8252 56.939 42.2606 56.939 44.0313C56.939 45.8021 58.3744 47.2375 60.1451 47.2375Z" fill="white"/>
        <path d="M43.6441 59.7023C46.5953 59.7023 48.9877 57.3099 48.9877 54.3587C48.9877 51.4075 46.5953 49.0151 43.6441 49.0151C40.6929 49.0151 38.3005 51.4075 38.3005 54.3587C38.3005 57.3099 40.6929 59.7023 43.6441 59.7023Z" fill="white"/>
        <path d="M124.293 54.4684C126.261 54.4684 127.856 52.8735 127.856 50.9061C127.856 48.9386 126.261 47.3438 124.293 47.3438C122.326 47.3438 120.731 48.9386 120.731 50.9061C120.731 52.8735 122.326 54.4684 124.293 54.4684Z" fill="#10B981"/>
        <path d="M43.7835 163.477C44.9639 163.477 45.9209 162.52 45.9209 161.34C45.9209 160.159 44.9639 159.202 43.7835 159.202C42.603 159.202 41.646 160.159 41.646 161.34C41.646 162.52 42.603 163.477 43.7835 163.477Z" fill="#E6E6E6"/>
        <path d="M193.404 236.862C194.584 236.862 195.541 235.905 195.541 234.725C195.541 233.544 194.584 232.587 193.404 232.587C192.223 232.587 191.266 233.544 191.266 234.725C191.266 235.905 192.223 236.862 193.404 236.862Z" fill="#E6E6E6"/>
        <path d="M54.1144 122.154C54.7046 122.154 55.1831 121.675 55.1831 121.085C55.1831 120.495 54.7046 120.016 54.1144 120.016C53.5241 120.016 53.0457 120.495 53.0457 121.085C53.0457 121.675 53.5241 122.154 54.1144 122.154Z" fill="#E6E6E6"/>
        <path d="M142.462 201.951C143.052 201.951 143.53 201.473 143.53 200.883C143.53 200.292 143.052 199.814 142.462 199.814C141.871 199.814 141.393 200.292 141.393 200.883C141.393 201.473 141.871 201.951 142.462 201.951Z" fill="#E6E6E6"/>
        <path d="M303.125 191.62C303.716 191.62 304.194 191.141 304.194 190.551C304.194 189.961 303.716 189.482 303.125 189.482C302.535 189.482 302.057 189.961 302.057 190.551C302.057 191.141 302.535 191.62 303.125 191.62Z" fill="#E6E6E6"/>
        <path d="M252.896 223.325C253.486 223.325 253.964 222.847 253.964 222.257C253.964 221.666 253.486 221.188 252.896 221.188C252.305 221.188 251.827 221.666 251.827 222.257C251.827 222.847 252.305 223.325 252.896 223.325Z" fill="#E6E6E6"/>
        <path d="M200.528 184.852C201.119 184.852 201.597 184.373 201.597 183.783C201.597 183.193 201.119 182.714 200.528 182.714C199.938 182.714 199.46 183.193 199.46 183.783C199.46 184.373 199.938 184.852 200.528 184.852Z" fill="#E6E6E6"/>
        <path d="M132.843 79.4051C133.433 79.4051 133.912 78.9266 133.912 78.3363C133.912 77.7461 133.433 77.2676 132.843 77.2676C132.253 77.2676 131.774 77.7461 131.774 78.3363C131.774 78.9266 132.253 79.4051 132.843 79.4051Z" fill="#E6E6E6"/>
        <path d="M141.393 26.6814C141.983 26.6814 142.462 26.2029 142.462 25.6127C142.462 25.0224 141.983 24.5439 141.393 24.5439C140.803 24.5439 140.324 25.0224 140.324 25.6127C140.324 26.2029 140.803 26.6814 141.393 26.6814Z" fill="#E6E6E6"/>
        <path d="M136.406 248.618C136.996 248.618 137.474 248.14 137.474 247.55C137.474 246.959 136.996 246.481 136.406 246.481C135.815 246.481 135.337 246.959 135.337 247.55C135.337 248.14 135.815 248.618 136.406 248.618Z" fill="#E6E6E6"/>
        <path d="M83.6823 226.176C84.2725 226.176 84.751 225.697 84.751 225.107C84.751 224.517 84.2725 224.038 83.6823 224.038C83.092 224.038 82.6135 224.517 82.6135 225.107C82.6135 225.697 83.092 226.176 83.6823 226.176Z" fill="#E6E6E6"/>
        <path d="M250.758 187.701C251.348 187.701 251.827 187.223 251.827 186.633C251.827 186.042 251.348 185.564 250.758 185.564C250.168 185.564 249.689 186.042 249.689 186.633C249.689 187.223 250.168 187.701 250.758 187.701Z" fill="#E6E6E6"/>
        <path d="M52.8565 83.2883C54.6272 83.2883 56.0627 81.8528 56.0627 80.0821C56.0627 78.3114 54.6272 76.876 52.8565 76.876C51.0858 76.876 49.6504 78.3114 49.6504 80.0821C49.6504 81.8528 51.0858 83.2883 52.8565 83.2883Z" fill="white"/>
        <path d="M125.362 129.278C125.362 138.854 110.557 161.167 106.231 167.484C106.1 167.675 105.925 167.831 105.72 167.939C105.516 168.047 105.288 168.103 105.057 168.103C104.825 168.103 104.597 168.047 104.393 167.939C104.188 167.831 104.013 167.675 103.883 167.484C99.556 161.167 84.751 138.854 84.751 129.278C84.751 126.612 85.2762 123.971 86.2966 121.508C87.3171 119.044 88.8128 116.806 90.6984 114.92C92.5839 113.034 94.8224 111.539 97.286 110.518C99.7496 109.498 102.39 108.973 105.057 108.973C107.723 108.973 110.364 109.498 112.827 110.518C115.291 111.539 117.529 113.034 119.415 114.92C121.3 116.806 122.796 119.044 123.817 121.508C124.837 123.971 125.362 126.612 125.362 129.278Z" fill="white"/>
        <path d="M105.057 138.184C110.762 138.184 115.387 133.559 115.387 127.853C115.387 122.148 110.762 117.522 105.057 117.522C99.3509 117.522 94.7256 122.148 94.7256 127.853C94.7256 133.559 99.3509 138.184 105.057 138.184Z" fill="#10B981"/>
        <path d="M104.878 179.152C111.469 179.152 116.812 178.115 116.812 176.837C116.812 175.558 111.469 174.521 104.878 174.521C98.2874 174.521 92.9443 175.558 92.9443 176.837C92.9443 178.115 98.2874 179.152 104.878 179.152Z" fill="white"/>
        <path d="M290.995 113.255C290.904 113.431 290.828 113.613 290.766 113.8L273.744 118.53L270.677 115.528L265.541 119.565L270.455 125.407C270.852 125.879 271.392 126.209 271.992 126.349C272.593 126.488 273.223 126.429 273.787 126.18L292.175 118.063C292.799 118.496 293.54 118.729 294.299 118.73C295.058 118.732 295.8 118.503 296.426 118.072C297.052 117.642 297.531 117.031 297.802 116.322C298.072 115.612 298.12 114.837 297.939 114.099C297.758 113.362 297.356 112.697 296.788 112.193C296.22 111.689 295.512 111.37 294.758 111.279C294.004 111.187 293.241 111.327 292.568 111.68C291.896 112.033 291.347 112.583 290.995 113.255Z" fill="#FFB8B8"/>
        <path d="M273.145 118.807L266.755 123.78C266.574 123.921 266.363 124.022 266.139 124.075C265.915 124.128 265.682 124.132 265.456 124.086C265.23 124.041 265.017 123.948 264.83 123.813C264.644 123.678 264.488 123.504 264.375 123.303L260.404 116.276C259.685 115.341 259.366 114.16 259.517 112.991C259.668 111.822 260.276 110.76 261.208 110.039C262.141 109.318 263.321 108.996 264.49 109.144C265.66 109.291 266.723 109.897 267.447 110.827L273.267 116.382C273.434 116.541 273.564 116.735 273.649 116.949C273.734 117.163 273.773 117.392 273.761 117.623C273.749 117.853 273.688 118.077 273.582 118.282C273.476 118.486 273.326 118.665 273.145 118.807Z" fill="#10B981"/>
        <path d="M292.627 110.903L299.106 113.818C299.378 113.94 299.589 114.165 299.695 114.443C299.8 114.721 299.791 115.03 299.669 115.301L298.902 117.006C298.992 117.047 299.063 117.122 299.098 117.215C299.133 117.308 299.13 117.41 299.09 117.501L298.783 118.183C298.742 118.273 298.667 118.344 298.574 118.379C298.481 118.414 298.379 118.411 298.288 118.371L297.981 119.053C298.072 119.093 298.142 119.168 298.177 119.261C298.212 119.354 298.209 119.457 298.169 119.547L297.862 120.229C297.821 120.319 297.746 120.39 297.654 120.425C297.561 120.46 297.458 120.457 297.368 120.417L293.225 129.624C293.103 129.895 292.878 130.107 292.6 130.213C292.322 130.318 292.013 130.309 291.742 130.187L285.263 127.272C284.991 127.15 284.78 126.925 284.674 126.647C284.568 126.368 284.578 126.06 284.7 125.788L291.144 111.466C291.266 111.194 291.491 110.983 291.769 110.877C292.047 110.772 292.356 110.781 292.627 110.903Z" fill="#3F3D56"/>
        <path d="M286.439 126.365L291.637 128.706C291.897 128.822 292.193 128.831 292.46 128.73C292.727 128.629 292.943 128.427 293.062 128.167L295.462 122.827L296.296 120.976L298.469 116.145C298.585 115.885 298.593 115.59 298.493 115.323C298.392 115.057 298.19 114.842 297.93 114.724L296.296 113.987L292.729 112.383C292.468 112.267 292.173 112.259 291.906 112.36C291.64 112.462 291.425 112.665 291.308 112.925L289.206 117.596L286.813 122.913L285.901 124.944C285.784 125.204 285.776 125.499 285.876 125.765C285.977 126.032 286.18 126.247 286.439 126.365Z" fill="#F2F2F2"/>
        <path d="M275.578 192.527L279.946 192.526L282.024 175.681L275.577 175.681L275.578 192.527Z" fill="#FFB8B8"/>
        <path d="M274.464 191.101L283.065 191.101C283.785 191.101 284.498 191.242 285.163 191.518C285.828 191.793 286.433 192.197 286.942 192.706C287.451 193.215 287.854 193.819 288.13 194.484C288.405 195.149 288.547 195.862 288.547 196.582V196.76L274.465 196.76L274.464 191.101Z" fill="#2F2E41"/>
        <path d="M286.978 191.458L291.345 191.458L293.423 174.612L286.977 174.612L286.978 191.458Z" fill="#FFB8B8"/>
        <path d="M285.864 190.032L294.465 190.032C295.185 190.032 295.898 190.173 296.563 190.449C297.228 190.724 297.832 191.128 298.341 191.637C298.85 192.146 299.254 192.75 299.529 193.415C299.805 194.08 299.947 194.793 299.947 195.513V195.691L285.864 195.692L285.864 190.032Z" fill="#2F2E41"/>
        <path d="M255.988 152.997C256.918 155.755 258.683 158.156 261.038 159.867C263.393 161.578 266.222 162.515 269.133 162.548L269.354 162.551C271.609 162.615 274.256 161.889 276.853 160.845C281.982 158.782 286.909 155.48 288.217 154.572L286.001 175.871L285.103 184.506C285.08 184.73 285.105 184.955 285.175 185.169C285.244 185.382 285.358 185.579 285.509 185.745C285.659 185.912 285.842 186.046 286.048 186.137C286.253 186.229 286.475 186.276 286.699 186.277H292.231C292.586 186.277 292.931 186.16 293.212 185.943C293.493 185.727 293.694 185.423 293.785 185.08L302.919 150.293C303.192 149.252 303.215 148.16 302.983 147.109C302.751 146.058 302.272 145.076 301.586 144.247C300.9 143.417 300.026 142.763 299.037 142.338C298.047 141.913 296.971 141.73 295.897 141.804L276.924 143.104L278.249 137.803L261.313 136.678L261.264 136.713C260.857 137.009 260.462 137.319 260.084 137.643C259.14 138.442 258.303 139.359 257.594 140.372C256.326 142.19 255.517 144.288 255.237 146.487C254.958 148.686 255.215 150.919 255.988 152.997Z" fill="#2F2E41"/>
        <path d="M255.988 152.997C256.918 155.755 258.683 158.156 261.038 159.867C263.393 161.578 266.222 162.515 269.133 162.547C271.916 161.139 274.603 159.545 277.173 157.777L276.853 160.845L274.06 187.712C274.037 187.936 274.061 188.161 274.131 188.375C274.201 188.588 274.315 188.784 274.465 188.951C274.615 189.118 274.799 189.251 275.004 189.343C275.209 189.435 275.431 189.482 275.656 189.483H281.188C281.543 189.483 281.888 189.365 282.169 189.149C282.45 188.932 282.651 188.629 282.741 188.286L286.001 175.871L291.875 153.499C292.149 152.458 292.171 151.366 291.939 150.315C291.708 149.263 291.229 148.282 290.543 147.453C289.857 146.623 288.983 145.969 287.993 145.544C287.004 145.119 285.928 144.936 284.854 145.01L265.88 146.31L267.206 141.009L257.594 140.372C256.326 142.189 255.517 144.288 255.237 146.486C254.958 148.685 255.215 150.919 255.988 152.997Z" fill="#2F2E41"/>
        <path d="M260.06 138.872L259.933 138.857L256.978 124.327C256.953 124.201 254.537 111.669 261.943 105.117L262.072 104.221C262.105 103.991 262.187 103.772 262.313 103.577C262.439 103.382 262.606 103.218 262.802 103.094C262.998 102.97 263.218 102.89 263.448 102.86C263.678 102.829 263.912 102.849 264.133 102.918L271.11 105.082C271.505 105.203 271.837 105.473 272.038 105.834C272.238 106.196 272.291 106.621 272.185 107.02L271.507 109.6C272.448 110.704 283.518 124.032 279.662 134.3L277.935 141.051L260.06 138.872Z" fill="#10B981"/>
        <path d="M289.03 127.532C288.863 127.637 288.705 127.755 288.557 127.885L271.494 123.305L270.378 119.16L263.903 120.026L265.165 127.555C265.267 128.163 265.564 128.722 266.01 129.147C266.457 129.573 267.029 129.842 267.641 129.914L287.602 132.272C287.919 132.962 288.439 133.539 289.092 133.927C289.745 134.314 290.501 134.494 291.258 134.441C292.016 134.389 292.739 134.107 293.333 133.633C293.926 133.16 294.362 132.516 294.581 131.789C294.8 131.062 294.792 130.286 294.559 129.563C294.326 128.84 293.878 128.206 293.276 127.743C292.673 127.281 291.944 127.014 291.186 126.976C290.427 126.938 289.675 127.132 289.03 127.532Z" fill="#FFB8B8"/>
        <path d="M270.836 123.239L262.806 124.273C262.578 124.303 262.346 124.282 262.126 124.214C261.906 124.146 261.703 124.031 261.531 123.877C261.36 123.723 261.223 123.534 261.131 123.323C261.04 123.112 260.994 122.883 260.999 122.653L261.152 114.582C261.008 113.413 261.334 112.233 262.058 111.303C262.782 110.373 263.845 109.768 265.015 109.621C266.184 109.474 267.364 109.797 268.296 110.518C269.228 111.24 269.836 112.302 269.986 113.471L272.174 121.213C272.237 121.435 272.251 121.668 272.215 121.895C272.18 122.123 272.096 122.34 271.969 122.532C271.842 122.725 271.675 122.887 271.48 123.009C271.284 123.131 271.065 123.209 270.836 123.239Z" fill="#10B981"/>
        <path d="M268.576 100.945C273.408 100.945 277.325 97.0281 277.325 92.1959C277.325 87.3636 273.408 83.4463 268.576 83.4463C263.743 83.4463 259.826 87.3636 259.826 92.1959C259.826 97.0281 263.743 100.945 268.576 100.945Z" fill="#FFB8B8"/>
        <path d="M268.115 92.9264L267.02 90.9316C264.945 99.3859 268.61 106.383 268.61 106.383L254.384 99.7564L254.52 97.4052L253.112 99.0026L251.09 97.888L250.823 96.3631L249.296 96.7413L254.869 86.6286C260.277 77.0055 268.14 80.6795 268.14 80.6795C280.65 80.0848 279.122 92.4266 279.122 92.4266L268.115 92.9264Z" fill="#2F2E41"/>
        <path d="M168.515 158.13C170.532 156.837 168.079 149.41 163.036 141.543C157.992 133.675 152.268 128.346 150.251 129.639C148.233 130.932 150.687 138.358 155.73 146.226C160.774 154.094 166.498 159.423 168.515 158.13Z" fill="#3F3D56"/>
    </g>
    <defs>
        <clipPath id="clip0_400_191">
            <rect width="350" height="271.815" fill="white"/>
        </clipPath>
    </defs>
</svg>
