<svg width="350" height="342" viewBox="0 0 350 342" fill="none" xmlns="http://www.w3.org/2000/svg">
    <g clip-path="url(#clip0_400_312)">
        <path d="M222.194 76.8347H127.885C125.735 76.8373 123.675 77.6922 122.155 79.2119C120.636 80.7315 119.781 82.7919 119.778 84.9411V294.546L118.697 294.876L95.5617 301.961C94.4652 302.295 93.2809 302.181 92.2687 301.643C91.2565 301.105 90.4992 300.187 90.1629 299.091L21.3449 74.3C21.01 73.2036 21.1241 72.019 21.6623 71.0066C22.2004 69.9943 23.1184 69.237 24.2146 68.9012L59.8666 57.9845L163.223 26.3479L198.875 15.4313C199.417 15.2643 199.988 15.2059 200.553 15.2595C201.118 15.3132 201.667 15.4777 202.168 15.7437C202.67 16.0098 203.114 16.3721 203.475 16.81C203.837 17.2478 204.108 17.7526 204.274 18.2955L221.865 75.7538L222.194 76.8347Z" fill="#F2F2F2"/>
        <path d="M242.776 75.7571L221.575 6.50682C221.222 5.35298 220.646 4.27995 219.878 3.34905C219.111 2.41815 218.167 1.64763 217.102 1.08151C216.036 0.515394 214.87 0.164767 213.668 0.0496837C212.467 -0.0653995 211.255 0.0573155 210.102 0.410804L159.977 15.7535L56.6264 47.3955L6.50188 62.7436C4.17336 63.4587 2.22366 65.0683 1.08073 67.2194C-0.0621955 69.3704 -0.304969 71.8871 0.405709 74.2169L72.8661 310.886C73.4434 312.767 74.6083 314.413 76.1898 315.583C77.7714 316.753 79.6863 317.385 81.6536 317.387C82.5641 317.388 83.4695 317.251 84.3393 316.982L118.7 306.465L119.781 306.13V305.001L118.7 305.33L84.0206 315.95C81.9652 316.576 79.7453 316.362 77.8477 315.354C75.9501 314.346 74.5298 312.626 73.8984 310.573L1.44355 73.8981C1.13069 72.8804 1.02165 71.811 1.12267 70.7511C1.22369 69.6913 1.53278 68.6617 2.03225 67.7215C2.53172 66.7812 3.21177 65.9488 4.03343 65.2717C4.85509 64.5947 5.80224 64.0863 6.82063 63.7759L56.9452 48.4277L160.296 16.7912L210.421 1.44303C211.193 1.20729 211.996 1.0871 212.804 1.08635C214.537 1.09024 216.224 1.64902 217.616 2.68083C219.009 3.71265 220.035 5.16329 220.543 6.82028L241.647 75.7571L241.982 76.838H243.106L242.776 75.7571Z" fill="#3F3D56"/>
        <path d="M66.3001 69.0778C65.2585 69.0771 64.2445 68.7425 63.4069 68.1233C62.5694 67.5041 61.9523 66.6327 61.6463 65.6371L54.6854 42.9003C54.4983 42.2896 54.4334 41.648 54.4944 41.0122C54.5553 40.3763 54.7409 39.7587 55.0406 39.1946C55.3402 38.6305 55.7481 38.131 56.2408 37.7246C56.7336 37.3181 57.3016 37.0127 57.9124 36.8258L152.995 7.71638C154.228 7.33999 155.56 7.46836 156.699 8.07331C157.838 8.67826 158.691 9.71037 159.069 10.9431L166.03 33.6801C166.406 34.9136 166.278 36.2459 165.673 37.3847C165.068 38.5236 164.036 39.376 162.804 39.7549L67.7211 68.8643C67.2606 69.0056 66.7817 69.0776 66.3001 69.0778Z" fill="#10B981"/>
        <path d="M102.764 24.2948C108.733 24.2948 113.572 19.4556 113.572 13.4863C113.572 7.51687 108.733 2.67773 102.764 2.67773C96.7945 2.67773 91.9553 7.51687 91.9553 13.4863C91.9553 19.4556 96.7945 24.2948 102.764 24.2948Z" fill="#10B981"/>
        <path d="M102.764 20.3307C106.544 20.3307 109.609 17.2664 109.609 13.4864C109.609 9.70638 106.544 6.64209 102.764 6.64209C98.9842 6.64209 95.9199 9.70638 95.9199 13.4864C95.9199 17.2664 98.9842 20.3307 102.764 20.3307Z" fill="white"/>
        <path d="M325.682 314.622H143.017C141.799 314.621 140.631 314.136 139.77 313.275C138.909 312.414 138.425 311.246 138.423 310.029V91.1561C138.425 89.9382 138.909 88.7706 139.77 87.9094C140.631 87.0483 141.799 86.5639 143.017 86.5625H325.682C326.899 86.5639 328.067 87.0483 328.928 87.9095C329.789 88.7707 330.274 89.9382 330.275 91.1561V310.029C330.274 311.246 329.789 312.414 328.928 313.275C328.067 314.136 326.899 314.621 325.682 314.622Z" fill="#E6E6E6"/>
        <path d="M241.644 75.7539H127.884C125.449 75.7574 123.114 76.7264 121.392 78.4486C119.67 80.1708 118.7 82.5056 118.697 84.9411V305.327L119.778 304.997V84.9411C119.78 82.792 120.635 80.7316 122.155 79.2119C123.675 77.6923 125.735 76.8374 127.884 76.8348H241.979L241.644 75.7539ZM340.813 75.7539H127.884C125.449 75.7574 123.114 76.7264 121.392 78.4486C119.67 80.1708 118.7 82.5056 118.697 84.9411V332.456C118.7 334.891 119.67 337.226 121.392 338.948C123.114 340.671 125.449 341.64 127.884 341.643H340.813C343.248 341.64 345.583 340.671 347.305 338.948C349.028 337.226 349.997 334.891 350 332.456V84.9411C349.997 82.5056 349.028 80.1708 347.305 78.4486C345.583 76.7264 343.248 75.7574 340.813 75.7539ZM348.919 332.456C348.917 334.605 348.062 336.665 346.542 338.185C345.022 339.705 342.962 340.56 340.813 340.562H127.884C125.735 340.56 123.675 339.705 122.155 338.185C120.635 336.665 119.78 334.605 119.778 332.456V84.9411C119.78 82.792 120.635 80.7316 122.155 79.2119C123.675 77.6923 125.735 76.8374 127.884 76.8348H340.813C342.962 76.8374 345.022 77.6923 346.542 79.2119C348.062 80.7316 348.917 82.792 348.919 84.9411V332.456Z" fill="#3F3D56"/>
        <path d="M284.068 99.5328H184.63C183.34 99.5314 182.104 99.0185 181.192 98.1066C180.28 97.1948 179.767 95.9585 179.766 94.669V70.8902C179.767 69.6007 180.28 68.3644 181.192 67.4526C182.104 66.5407 183.34 66.0278 184.63 66.0264H284.068C285.358 66.0278 286.594 66.5407 287.506 67.4526C288.417 68.3644 288.93 69.6007 288.932 70.8902V94.669C288.93 95.9585 288.418 97.1948 287.506 98.1066C286.594 99.0185 285.358 99.5314 284.068 99.5328Z" fill="#10B981"/>
        <path d="M234.349 67.6473C240.318 67.6473 245.158 62.8082 245.158 56.8388C245.158 50.8694 240.318 46.0303 234.349 46.0303C228.38 46.0303 223.541 50.8694 223.541 56.8388C223.541 62.8082 228.38 67.6473 234.349 67.6473Z" fill="#10B981"/>
        <path d="M234.349 63.4222C237.985 63.4222 240.932 60.4747 240.932 56.8388C240.932 53.2029 237.985 50.2554 234.349 50.2554C230.713 50.2554 227.766 53.2029 227.766 56.8388C227.766 60.4747 230.713 63.4222 234.349 63.4222Z" fill="white"/>
    </g>
    <defs>
        <clipPath id="clip0_400_312">
            <rect width="350" height="341.643" fill="white"/>
        </clipPath>
    </defs>
</svg>
