<svg width="249" height="1019" viewBox="0 0 249 1019" fill="none" xmlns="http://www.w3.org/2000/svg">
<path d="M199.4 1019L174.6 985.033C149.8 951.067 100.2 883.133 58.8149 815.2C18.0499 747.267 -16.0501 679.333 9.21488 611.4C33.5499 543.467 117.25 475.533 141.585 407.6C166.85 339.667 132.75 271.733 141.585 203.8C149.8 135.867 199.4 67.9333 224.2 33.9667L249 6.10352e-05V33.9667C249 67.9333 249 135.867 249 203.8C249 271.733 249 339.667 249 407.6C249 475.533 249 543.467 249 611.4C249 679.333 249 747.267 249 815.2C249 883.133 249 951.067 249 985.033V1019H199.4Z" fill="#10B981"/>
</svg>
